<svg xmlns="http://www.w3.org/2000/svg" xmlns:xlink="http://www.w3.org/1999/xlink" width="1680" zoomAndPan="magnify" viewBox="0 0 1260 787.499972" height="1050" preserveAspectRatio="xMidYMid meet" version="1.0"><defs><filter x="0%" y="0%" width="100%" height="100%" id="a89d668e37"><feColorMatrix values="0 0 0 0 1 0 0 0 0 1 0 0 0 0 1 0 0 0 1 0" color-interpolation-filters="sRGB"/></filter><g/><clipPath id="d83a536762"><path d="M 0.398438 0 L 1259.597656 0 L 1259.597656 787 L 0.398438 787 Z M 0.398438 0 " clip-rule="nonzero"/></clipPath><mask id="bf1f2663ea"><g filter="url(#a89d668e37)"><rect x="-126" width="1512" fill="#000000" y="-78.749997" height="944.999966" fill-opacity="0.04"/></g></mask><clipPath id="a304486e23"><path d="M 49 58 L 295 58 L 295 787 L 49 787 Z M 49 58 " clip-rule="nonzero"/></clipPath><clipPath id="88b9202a54"><path d="M 408 58 L 592 58 L 592 787 L 408 787 Z M 408 58 " clip-rule="nonzero"/></clipPath><clipPath id="f3374990d9"><path d="M 690 58 L 875 58 L 875 787 L 690 787 Z M 690 58 " clip-rule="nonzero"/></clipPath><clipPath id="7651eb85da"><path d="M 996 58 L 1058 58 L 1058 787 L 996 787 Z M 996 58 " clip-rule="nonzero"/></clipPath><clipPath id="25acfad660"><path d="M 1179 51 L 1259.597656 51 L 1259.597656 787 L 1179 787 Z M 1179 51 " clip-rule="nonzero"/></clipPath><clipPath id="bc01be60cb"><path d="M 6 15 L 252 15 L 252 787 L 6 787 Z M 6 15 " clip-rule="nonzero"/></clipPath><clipPath id="9991e41076"><path d="M 365 15 L 549 15 L 549 787 L 365 787 Z M 365 15 " clip-rule="nonzero"/></clipPath><clipPath id="5832ddaa24"><path d="M 647 15 L 832 15 L 832 787 L 647 787 Z M 647 15 " clip-rule="nonzero"/></clipPath><clipPath id="5944d39f96"><path d="M 952 15 L 1015 15 L 1015 787 L 952 787 Z M 952 15 " clip-rule="nonzero"/></clipPath><clipPath id="8dc8219650"><path d="M 1135 7 L 1259.597656 7 L 1259.597656 787 L 1135 787 Z M 1135 7 " clip-rule="nonzero"/></clipPath><clipPath id="9957f489d5"><path d="M 0.398438 0 L 208 0 L 208 787 L 0.398438 787 Z M 0.398438 0 " clip-rule="nonzero"/></clipPath><clipPath id="3765768c96"><path d="M 322 0 L 506 0 L 506 787 L 322 787 Z M 322 0 " clip-rule="nonzero"/></clipPath><clipPath id="242542305a"><path d="M 604 0 L 788 0 L 788 787 L 604 787 Z M 604 0 " clip-rule="nonzero"/></clipPath><clipPath id="6c877440bc"><path d="M 909 0 L 971 0 L 971 787 L 909 787 Z M 909 0 " clip-rule="nonzero"/></clipPath><clipPath id="80f53a46dc"><path d="M 1092 0 L 1259.597656 0 L 1259.597656 787 L 1092 787 Z M 1092 0 " clip-rule="nonzero"/></clipPath><clipPath id="fca8ea9b19"><rect x="0" width="1260" y="0" height="787"/></clipPath></defs><g clip-path="url(#d83a536762)"><path fill="#ffffff" d="M 0.398438 0 L 1259.601562 0 L 1259.601562 787 L 0.398438 787 Z M 0.398438 0 " fill-opacity="1" fill-rule="nonzero"/><path fill="#ffffff" d="M 0.398438 0 L 1259.601562 0 L 1259.601562 787 L 0.398438 787 Z M 0.398438 0 " fill-opacity="1" fill-rule="nonzero"/><g mask="url(#bf1f2663ea)"><g transform="matrix(1, 0, 0, 1, 0.000000000000000056, 0)"><g clip-path="url(#fca8ea9b19)"><g clip-path="url(#a304486e23)"><g fill="#000000" fill-opacity="0.302"><g transform="translate(19.381524, 883.249648)"><g><path d="M 198.59375 -824.875 L 259.6875 -824.875 L 274.96875 0 L 213.859375 0 L 213.859375 -565.1875 L 168.03125 -45.828125 L 137.484375 -45.828125 L 91.65625 -565.1875 L 91.65625 0 L 30.546875 0 L 45.828125 -824.875 L 106.9375 -824.875 L 152.765625 -259.6875 Z M 198.59375 -824.875 "/></g></g></g></g><g clip-path="url(#88b9202a54)"><g fill="#000000" fill-opacity="0.302"><g transform="translate(393.335219, 883.249648)"><g><path d="M 198.59375 0 L 137.484375 0 L 129.84375 -198.59375 L 84.5 -198.59375 L 76.375 0 L 15.28125 0 L 61.109375 -824.875 L 152.765625 -824.875 Z M 122.203125 -427.71875 L 106.9375 -794.328125 L 91.65625 -427.71875 L 84.5 -244.421875 L 129.84375 -244.421875 Z M 122.203125 -427.71875 "/></g></g></g></g><g clip-path="url(#f3374990d9)"><g fill="#000000" fill-opacity="0.302"><g transform="translate(675.633567, 883.249648)"><g><path d="M 92.125 -565.1875 L 106.9375 -259.6875 L 121.734375 -565.1875 L 137.484375 -824.875 L 198.59375 -824.875 L 137.484375 0 L 76.375 0 L 15.28125 -824.875 L 76.375 -824.875 Z M 92.125 -565.1875 "/></g></g></g></g><g clip-path="url(#7651eb85da)"><g fill="#000000" fill-opacity="0.302"><g transform="translate(957.931938, 883.249648)"><g><path d="M 99.296875 -824.875 L 99.296875 0 L 38.1875 0 L 38.1875 -824.875 Z M 99.296875 -824.875 "/></g></g></g></g><g clip-path="url(#25acfad660)"><g fill="#000000" fill-opacity="0.302"><g transform="translate(1163.850863, 883.249648)"><g><path d="M 137.484375 -200.96875 C 137.484375 -234.707031 135.734375 -263.671875 132.234375 -287.859375 C 128.734375 -312.046875 124.117188 -333.128906 118.390625 -351.109375 C 112.660156 -369.085938 106.132812 -384.757812 98.8125 -398.125 C 91.5 -411.488281 84.019531 -424.054688 76.375 -435.828125 C 68.738281 -447.609375 61.257812 -459.382812 53.9375 -471.15625 C 46.625 -482.9375 40.101562 -496.300781 34.375 -511.25 C 28.644531 -526.207031 24.03125 -543.472656 20.53125 -563.046875 C 17.03125 -582.617188 15.28125 -606.085938 15.28125 -633.453125 L 15.28125 -748.5 C 15.28125 -756.132812 16.472656 -764.804688 18.859375 -774.515625 C 21.242188 -784.222656 25.773438 -793.289062 32.453125 -801.71875 C 39.140625 -810.15625 48.445312 -817.316406 60.375 -823.203125 C 72.3125 -829.097656 87.832031 -832.046875 106.9375 -832.046875 C 126.03125 -832.046875 141.539062 -829.097656 153.46875 -823.203125 C 165.40625 -817.316406 174.710938 -810.15625 181.390625 -801.71875 C 188.078125 -793.289062 192.613281 -784.222656 195 -774.515625 C 197.394531 -764.804688 198.59375 -756.132812 198.59375 -748.5 L 198.59375 -534.640625 L 137.484375 -534.640625 L 137.484375 -748.5 C 137.484375 -756.132812 136.609375 -762.421875 134.859375 -767.359375 C 133.109375 -772.296875 130.800781 -776.113281 127.9375 -778.8125 C 125.070312 -781.519531 121.804688 -783.429688 118.140625 -784.546875 C 114.484375 -785.660156 110.75 -786.21875 106.9375 -786.21875 C 103.113281 -786.21875 99.367188 -785.660156 95.703125 -784.546875 C 92.046875 -783.429688 88.785156 -781.519531 85.921875 -778.8125 C 83.054688 -776.113281 80.75 -772.296875 79 -767.359375 C 77.25 -762.421875 76.375 -756.132812 76.375 -748.5 L 76.375 -655.421875 C 76.375 -619.453125 79.394531 -589.375 85.4375 -565.1875 C 91.488281 -541 99.050781 -519.914062 108.125 -501.9375 C 117.195312 -483.96875 126.984375 -467.660156 137.484375 -453.015625 C 147.984375 -438.378906 157.769531 -422.546875 166.84375 -405.515625 C 175.914062 -388.492188 183.472656 -368.765625 189.515625 -346.328125 C 195.566406 -323.890625 198.59375 -295.960938 198.59375 -262.546875 L 198.59375 -76.375 C 198.59375 -72.5625 198.113281 -65.640625 197.15625 -55.609375 C 196.195312 -45.585938 192.851562 -35.320312 187.125 -24.8125 C 181.394531 -14.3125 172.320312 -5.003906 159.90625 3.109375 C 147.5 11.222656 129.84375 15.28125 106.9375 15.28125 C 84.019531 15.28125 66.351562 11.222656 53.9375 3.109375 C 41.53125 -5.003906 32.460938 -14.3125 26.734375 -24.8125 C 21.003906 -35.320312 17.660156 -45.585938 16.703125 -55.609375 C 15.753906 -65.640625 15.28125 -72.5625 15.28125 -76.375 L 15.28125 -351.34375 L 76.375 -351.34375 L 76.375 -76.375 C 76.375 -72.5625 76.53125 -68.023438 76.84375 -62.765625 C 77.164062 -57.515625 78.28125 -52.503906 80.1875 -47.734375 C 82.101562 -42.960938 85.128906 -38.90625 89.265625 -35.5625 C 93.398438 -32.21875 99.289062 -30.546875 106.9375 -30.546875 C 114.570312 -30.546875 120.457031 -32.21875 124.59375 -35.5625 C 128.726562 -38.90625 131.75 -42.960938 133.65625 -47.734375 C 135.570312 -52.503906 136.6875 -57.515625 137 -62.765625 C 137.320312 -68.023438 137.484375 -72.5625 137.484375 -76.375 Z M 137.484375 -200.96875 "/></g></g></g></g><g clip-path="url(#bc01be60cb)"><g fill="#000000" fill-opacity="0.502"><g transform="translate(-23.825199, 840.042921)"><g><path d="M 198.59375 -824.875 L 259.6875 -824.875 L 274.96875 0 L 213.859375 0 L 213.859375 -565.1875 L 168.03125 -45.828125 L 137.484375 -45.828125 L 91.65625 -565.1875 L 91.65625 0 L 30.546875 0 L 45.828125 -824.875 L 106.9375 -824.875 L 152.765625 -259.6875 Z M 198.59375 -824.875 "/></g></g></g></g><g clip-path="url(#9991e41076)"><g fill="#000000" fill-opacity="0.502"><g transform="translate(350.128496, 840.042921)"><g><path d="M 198.59375 0 L 137.484375 0 L 129.84375 -198.59375 L 84.5 -198.59375 L 76.375 0 L 15.28125 0 L 61.109375 -824.875 L 152.765625 -824.875 Z M 122.203125 -427.71875 L 106.9375 -794.328125 L 91.65625 -427.71875 L 84.5 -244.421875 L 129.84375 -244.421875 Z M 122.203125 -427.71875 "/></g></g></g></g><g clip-path="url(#5832ddaa24)"><g fill="#000000" fill-opacity="0.502"><g transform="translate(632.426844, 840.042921)"><g><path d="M 92.125 -565.1875 L 106.9375 -259.6875 L 121.734375 -565.1875 L 137.484375 -824.875 L 198.59375 -824.875 L 137.484375 0 L 76.375 0 L 15.28125 -824.875 L 76.375 -824.875 Z M 92.125 -565.1875 "/></g></g></g></g><g clip-path="url(#5944d39f96)"><g fill="#000000" fill-opacity="0.502"><g transform="translate(914.725215, 840.042921)"><g><path d="M 99.296875 -824.875 L 99.296875 0 L 38.1875 0 L 38.1875 -824.875 Z M 99.296875 -824.875 "/></g></g></g></g><g clip-path="url(#8dc8219650)"><g fill="#000000" fill-opacity="0.502"><g transform="translate(1120.64414, 840.042921)"><g><path d="M 137.484375 -200.96875 C 137.484375 -234.707031 135.734375 -263.671875 132.234375 -287.859375 C 128.734375 -312.046875 124.117188 -333.128906 118.390625 -351.109375 C 112.660156 -369.085938 106.132812 -384.757812 98.8125 -398.125 C 91.5 -411.488281 84.019531 -424.054688 76.375 -435.828125 C 68.738281 -447.609375 61.257812 -459.382812 53.9375 -471.15625 C 46.625 -482.9375 40.101562 -496.300781 34.375 -511.25 C 28.644531 -526.207031 24.03125 -543.472656 20.53125 -563.046875 C 17.03125 -582.617188 15.28125 -606.085938 15.28125 -633.453125 L 15.28125 -748.5 C 15.28125 -756.132812 16.472656 -764.804688 18.859375 -774.515625 C 21.242188 -784.222656 25.773438 -793.289062 32.453125 -801.71875 C 39.140625 -810.15625 48.445312 -817.316406 60.375 -823.203125 C 72.3125 -829.097656 87.832031 -832.046875 106.9375 -832.046875 C 126.03125 -832.046875 141.539062 -829.097656 153.46875 -823.203125 C 165.40625 -817.316406 174.710938 -810.15625 181.390625 -801.71875 C 188.078125 -793.289062 192.613281 -784.222656 195 -774.515625 C 197.394531 -764.804688 198.59375 -756.132812 198.59375 -748.5 L 198.59375 -534.640625 L 137.484375 -534.640625 L 137.484375 -748.5 C 137.484375 -756.132812 136.609375 -762.421875 134.859375 -767.359375 C 133.109375 -772.296875 130.800781 -776.113281 127.9375 -778.8125 C 125.070312 -781.519531 121.804688 -783.429688 118.140625 -784.546875 C 114.484375 -785.660156 110.75 -786.21875 106.9375 -786.21875 C 103.113281 -786.21875 99.367188 -785.660156 95.703125 -784.546875 C 92.046875 -783.429688 88.785156 -781.519531 85.921875 -778.8125 C 83.054688 -776.113281 80.75 -772.296875 79 -767.359375 C 77.25 -762.421875 76.375 -756.132812 76.375 -748.5 L 76.375 -655.421875 C 76.375 -619.453125 79.394531 -589.375 85.4375 -565.1875 C 91.488281 -541 99.050781 -519.914062 108.125 -501.9375 C 117.195312 -483.96875 126.984375 -467.660156 137.484375 -453.015625 C 147.984375 -438.378906 157.769531 -422.546875 166.84375 -405.515625 C 175.914062 -388.492188 183.472656 -368.765625 189.515625 -346.328125 C 195.566406 -323.890625 198.59375 -295.960938 198.59375 -262.546875 L 198.59375 -76.375 C 198.59375 -72.5625 198.113281 -65.640625 197.15625 -55.609375 C 196.195312 -45.585938 192.851562 -35.320312 187.125 -24.8125 C 181.394531 -14.3125 172.320312 -5.003906 159.90625 3.109375 C 147.5 11.222656 129.84375 15.28125 106.9375 15.28125 C 84.019531 15.28125 66.351562 11.222656 53.9375 3.109375 C 41.53125 -5.003906 32.460938 -14.3125 26.734375 -24.8125 C 21.003906 -35.320312 17.660156 -45.585938 16.703125 -55.609375 C 15.753906 -65.640625 15.28125 -72.5625 15.28125 -76.375 L 15.28125 -351.34375 L 76.375 -351.34375 L 76.375 -76.375 C 76.375 -72.5625 76.53125 -68.023438 76.84375 -62.765625 C 77.164062 -57.515625 78.28125 -52.503906 80.1875 -47.734375 C 82.101562 -42.960938 85.128906 -38.90625 89.265625 -35.5625 C 93.398438 -32.21875 99.289062 -30.546875 106.9375 -30.546875 C 114.570312 -30.546875 120.457031 -32.21875 124.59375 -35.5625 C 128.726562 -38.90625 131.75 -42.960938 133.65625 -47.734375 C 135.570312 -52.503906 136.6875 -57.515625 137 -62.765625 C 137.320312 -68.023438 137.484375 -72.5625 137.484375 -76.375 Z M 137.484375 -200.96875 "/></g></g></g></g><g clip-path="url(#9957f489d5)"><g fill="#000000" fill-opacity="1"><g transform="translate(-67.031925, 796.836192)"><g><path d="M 198.59375 -824.875 L 259.6875 -824.875 L 274.96875 0 L 213.859375 0 L 213.859375 -565.1875 L 168.03125 -45.828125 L 137.484375 -45.828125 L 91.65625 -565.1875 L 91.65625 0 L 30.546875 0 L 45.828125 -824.875 L 106.9375 -824.875 L 152.765625 -259.6875 Z M 198.59375 -824.875 "/></g></g></g></g><g clip-path="url(#3765768c96)"><g fill="#000000" fill-opacity="1"><g transform="translate(306.92177, 796.836192)"><g><path d="M 198.59375 0 L 137.484375 0 L 129.84375 -198.59375 L 84.5 -198.59375 L 76.375 0 L 15.28125 0 L 61.109375 -824.875 L 152.765625 -824.875 Z M 122.203125 -427.71875 L 106.9375 -794.328125 L 91.65625 -427.71875 L 84.5 -244.421875 L 129.84375 -244.421875 Z M 122.203125 -427.71875 "/></g></g></g></g><g clip-path="url(#242542305a)"><g fill="#000000" fill-opacity="1"><g transform="translate(589.220119, 796.836192)"><g><path d="M 92.125 -565.1875 L 106.9375 -259.6875 L 121.734375 -565.1875 L 137.484375 -824.875 L 198.59375 -824.875 L 137.484375 0 L 76.375 0 L 15.28125 -824.875 L 76.375 -824.875 Z M 92.125 -565.1875 "/></g></g></g></g><g clip-path="url(#6c877440bc)"><g fill="#000000" fill-opacity="1"><g transform="translate(871.51849, 796.836192)"><g><path d="M 99.296875 -824.875 L 99.296875 0 L 38.1875 0 L 38.1875 -824.875 Z M 99.296875 -824.875 "/></g></g></g></g><g clip-path="url(#80f53a46dc)"><g fill="#000000" fill-opacity="1"><g transform="translate(1077.437414, 796.836192)"><g><path d="M 137.484375 -200.96875 C 137.484375 -234.707031 135.734375 -263.671875 132.234375 -287.859375 C 128.734375 -312.046875 124.117188 -333.128906 118.390625 -351.109375 C 112.660156 -369.085938 106.132812 -384.757812 98.8125 -398.125 C 91.5 -411.488281 84.019531 -424.054688 76.375 -435.828125 C 68.738281 -447.609375 61.257812 -459.382812 53.9375 -471.15625 C 46.625 -482.9375 40.101562 -496.300781 34.375 -511.25 C 28.644531 -526.207031 24.03125 -543.472656 20.53125 -563.046875 C 17.03125 -582.617188 15.28125 -606.085938 15.28125 -633.453125 L 15.28125 -748.5 C 15.28125 -756.132812 16.472656 -764.804688 18.859375 -774.515625 C 21.242188 -784.222656 25.773438 -793.289062 32.453125 -801.71875 C 39.140625 -810.15625 48.445312 -817.316406 60.375 -823.203125 C 72.3125 -829.097656 87.832031 -832.046875 106.9375 -832.046875 C 126.03125 -832.046875 141.539062 -829.097656 153.46875 -823.203125 C 165.40625 -817.316406 174.710938 -810.15625 181.390625 -801.71875 C 188.078125 -793.289062 192.613281 -784.222656 195 -774.515625 C 197.394531 -764.804688 198.59375 -756.132812 198.59375 -748.5 L 198.59375 -534.640625 L 137.484375 -534.640625 L 137.484375 -748.5 C 137.484375 -756.132812 136.609375 -762.421875 134.859375 -767.359375 C 133.109375 -772.296875 130.800781 -776.113281 127.9375 -778.8125 C 125.070312 -781.519531 121.804688 -783.429688 118.140625 -784.546875 C 114.484375 -785.660156 110.75 -786.21875 106.9375 -786.21875 C 103.113281 -786.21875 99.367188 -785.660156 95.703125 -784.546875 C 92.046875 -783.429688 88.785156 -781.519531 85.921875 -778.8125 C 83.054688 -776.113281 80.75 -772.296875 79 -767.359375 C 77.25 -762.421875 76.375 -756.132812 76.375 -748.5 L 76.375 -655.421875 C 76.375 -619.453125 79.394531 -589.375 85.4375 -565.1875 C 91.488281 -541 99.050781 -519.914062 108.125 -501.9375 C 117.195312 -483.96875 126.984375 -467.660156 137.484375 -453.015625 C 147.984375 -438.378906 157.769531 -422.546875 166.84375 -405.515625 C 175.914062 -388.492188 183.472656 -368.765625 189.515625 -346.328125 C 195.566406 -323.890625 198.59375 -295.960938 198.59375 -262.546875 L 198.59375 -76.375 C 198.59375 -72.5625 198.113281 -65.640625 197.15625 -55.609375 C 196.195312 -45.585938 192.851562 -35.320312 187.125 -24.8125 C 181.394531 -14.3125 172.320312 -5.003906 159.90625 3.109375 C 147.5 11.222656 129.84375 15.28125 106.9375 15.28125 C 84.019531 15.28125 66.351562 11.222656 53.9375 3.109375 C 41.53125 -5.003906 32.460938 -14.3125 26.734375 -24.8125 C 21.003906 -35.320312 17.660156 -45.585938 16.703125 -55.609375 C 15.753906 -65.640625 15.28125 -72.5625 15.28125 -76.375 L 15.28125 -351.34375 L 76.375 -351.34375 L 76.375 -76.375 C 76.375 -72.5625 76.53125 -68.023438 76.84375 -62.765625 C 77.164062 -57.515625 78.28125 -52.503906 80.1875 -47.734375 C 82.101562 -42.960938 85.128906 -38.90625 89.265625 -35.5625 C 93.398438 -32.21875 99.289062 -30.546875 106.9375 -30.546875 C 114.570312 -30.546875 120.457031 -32.21875 124.59375 -35.5625 C 128.726562 -38.90625 131.75 -42.960938 133.65625 -47.734375 C 135.570312 -52.503906 136.6875 -57.515625 137 -62.765625 C 137.320312 -68.023438 137.484375 -72.5625 137.484375 -76.375 Z M 137.484375 -200.96875 "/></g></g></g></g></g></g></g></g></svg>