<svg width="400" height="484" viewBox="0 0 400 484" fill="none" xmlns="http://www.w3.org/2000/svg">
<g filter="url(#filter0_d_14_2)">
<path d="M19 25C19 19.4771 23.4772 15 29 15L359 15C364.523 15 369 19.4772 369 25L369 439C369 444.523 364.523 449 359 449L123 449C117.477 449 113 444.523 113 439L113 370.5C113 364.977 108.523 360.5 103 360.5H29C23.4772 360.5 19 356.023 19 350.5L19 25Z" fill="#FFD100"/>
<path d="M19 25C19 19.4771 23.4772 15 29 15L359 15C364.523 15 369 19.4772 369 25L369 439C369 444.523 364.523 449 359 449L123 449C117.477 449 113 444.523 113 439L113 370.5C113 364.977 108.523 360.5 103 360.5H29C23.4772 360.5 19 356.023 19 350.5L19 25Z" fill="url(#paint0_linear_14_2)" fill-opacity="0.4"/>
</g>
<defs>
<filter id="filter0_d_14_2" x="0" y="0" width="400" height="484" filterUnits="userSpaceOnUse" color-interpolation-filters="sRGB">
<feFlood flood-opacity="0" result="BackgroundImageFix"/>
<feColorMatrix in="SourceAlpha" type="matrix" values="0 0 0 0 0 0 0 0 0 0 0 0 0 0 0 0 0 0 127 0" result="hardAlpha"/>
<feOffset dx="6" dy="10"/>
<feGaussianBlur stdDeviation="12.5"/>
<feColorMatrix type="matrix" values="0 0 0 0 0 0 0 0 0 0 0 0 0 0 0 0 0 0 0.1 0"/>
<feBlend mode="normal" in2="BackgroundImageFix" result="effect1_dropShadow_14_2"/>
<feBlend mode="normal" in="SourceGraphic" in2="effect1_dropShadow_14_2" result="shape"/>
</filter>
<linearGradient id="paint0_linear_14_2" x1="19" y1="15" x2="369" y2="449" gradientUnits="userSpaceOnUse">
<stop stop-color="white"/>
<stop offset="1" stop-color="white" stop-opacity="0"/>
</linearGradient>
</defs>
</svg>
