<svg width="567" height="251" viewBox="0 0 567 251" fill="none" xmlns="http://www.w3.org/2000/svg">
<path d="M251 125.5L129.036 3.53553C127.083 1.58291 123.917 1.58291 121.964 3.53554L3.53553 121.964C1.58291 123.917 1.58291 127.083 3.53554 129.036L121.964 247.464C123.917 249.417 127.083 249.417 129.036 247.464L251 125.5ZM251 125.5L372.964 3.53554C374.917 1.58291 378.083 1.58291 380.036 3.53553L498.464 121.964C500.417 123.917 500.417 127.083 498.464 129.036L380.036 247.464C378.083 249.417 374.917 249.417 372.964 247.464L251 125.5Z" stroke="white" stroke-opacity="0.6" stroke-width="2"/>
<mask id="mask0_276308_363" style="mask-type:luminance" maskUnits="userSpaceOnUse" x="438" y="61" width="129" height="129">
<path d="M438 61H567V190H438V61Z" fill="white"/>
</mask>
<g mask="url(#mask0_276308_363)">
<path d="M515.781 132.921C524.692 127.086 540.049 126.328 567 125.5C540.049 124.677 524.692 123.914 515.781 118.084C518.438 112.093 524.157 105.147 532.957 95.0484C522.853 103.843 515.912 109.567 509.921 112.224C504.086 103.313 503.328 87.9508 502.5 61C501.677 87.9508 500.914 103.313 495.084 112.224C489.093 109.567 482.147 103.843 472.048 95.0484C480.843 105.147 486.567 112.093 489.219 118.084C480.308 123.914 464.951 124.677 438 125.5C464.951 126.328 480.308 127.086 489.219 132.921C486.567 138.912 480.843 145.853 472.048 155.957C482.147 147.162 489.093 141.438 495.084 138.781C500.914 147.692 501.677 163.049 502.5 190C503.328 163.049 504.086 147.692 509.921 138.781C515.912 141.438 522.853 147.162 532.957 155.957C524.157 145.853 518.438 138.912 515.781 132.921Z" fill="white"/>
</g>
<path d="M94.026 125.01C73.7656 128.745 70.7448 131.766 67.0156 152.026C63.2865 131.766 60.2604 128.745 40 125.01C60.2604 121.281 63.2865 118.26 67.0156 98C70.7448 118.26 73.7656 121.281 94.026 125.01Z" fill="white"/>
<path d="M278.026 125.01C257.766 128.745 254.745 131.766 251.016 152.026C247.286 131.766 244.26 128.745 224 125.01C244.26 121.281 247.286 118.26 251.016 98C254.745 118.26 257.766 121.281 278.026 125.01Z" fill="white"/>
</svg>
